# Blender v3.1.2 OBJ File: ''
# www.blender.org
mtllib cube_grass_side_bottom.mtl
o cube_grass_side.006
v 0.500000 -0.026500 0.510000
v -0.500000 -0.026500 0.510000
v -0.500000 -0.099500 0.550000
v 0.500000 -0.026500 0.510000
v -0.500000 -0.099500 0.550000
v 0.500000 -0.099500 0.550000
v 0.500000 -0.231500 0.510000
v -0.500000 -0.231500 0.510000
v -0.500000 -0.236500 0.424000
v 0.500000 -0.231500 0.510000
v -0.500000 -0.236500 0.424000
v 0.500000 -0.236500 0.424000
v 0.500000 -0.231500 0.510000
v 0.500000 -0.216500 0.550000
v -0.500000 -0.216500 0.550000
v 0.500000 -0.231500 0.510000
v -0.500000 -0.216500 0.550000
v -0.500000 -0.231500 0.510000
v 0.500000 -0.099500 0.550000
v -0.500000 -0.099500 0.550000
v -0.500000 -0.177500 0.558500
v 0.500000 -0.099500 0.550000
v -0.500000 -0.177500 0.558500
v 0.500000 -0.177500 0.558500
v 0.500000 -0.026500 0.510000
v 0.500000 -0.002000 0.424000
v -0.500000 -0.002000 0.424000
v 0.500000 -0.026500 0.510000
v -0.500000 -0.002000 0.424000
v -0.500000 -0.026500 0.510000
v 0.500000 -0.177500 0.558500
v -0.500000 -0.177500 0.558500
v -0.500000 -0.216500 0.550000
v 0.500000 -0.177500 0.558500
v -0.500000 -0.216500 0.550000
v 0.500000 -0.216500 0.550000
v 0.500000 -0.002000 -0.500000
v -0.500000 -0.002000 -0.500000
v -0.500000 -0.002000 0.178000
v 0.500000 -0.002000 -0.500000
v -0.500000 -0.002000 0.178000
v 0.500000 -0.002000 0.178000
v -0.500000 -0.002000 0.424000
v 0.500000 -0.002000 0.424000
v 0.500000 -0.002000 0.178000
v -0.500000 -0.002000 0.424000
v 0.500000 -0.002000 0.178000
v -0.500000 -0.002000 0.178000
v 0.500000 -1.000000 -0.500000
v 0.500000 -1.000000 0.437000
v -0.500000 -1.000000 0.437000
v 0.500000 -1.000000 -0.500000
v -0.500000 -1.000000 0.437000
v -0.500000 -1.000000 -0.500000
v 0.500000 -0.937000 0.500000
v -0.500000 -0.937000 0.500000
v -0.500000 -0.981500 0.481500
v 0.500000 -0.937000 0.500000
v -0.500000 -0.981500 0.481500
v 0.500000 -0.981500 0.481500
v 0.500000 -0.981500 0.481500
v -0.500000 -0.981500 0.481500
v -0.500000 -1.000000 0.437000
v 0.500000 -0.981500 0.481500
v -0.500000 -1.000000 0.437000
v 0.500000 -1.000000 0.437000
v -0.500000 -0.664000 0.500000
v 0.500000 -0.664000 0.500000
v 0.500000 -0.512000 0.500000
v -0.500000 -0.664000 0.500000
v 0.500000 -0.512000 0.500000
v -0.500000 -0.512000 0.500000
v -0.500000 -0.188000 0.500000
v -0.500000 -0.359500 0.500000
v 0.500000 -0.359500 0.500000
v -0.500000 -0.188000 0.500000
v 0.500000 -0.359500 0.500000
v 0.500000 -0.188000 0.500000
v -0.500000 -0.664000 0.500000
v -0.500000 -0.812000 0.500000
v 0.500000 -0.812000 0.500000
v -0.500000 -0.664000 0.500000
v 0.500000 -0.812000 0.500000
v 0.500000 -0.664000 0.500000
v -0.500000 -0.812000 0.500000
v -0.500000 -0.937000 0.500000
v 0.500000 -0.937000 0.500000
v -0.500000 -0.812000 0.500000
v 0.500000 -0.937000 0.500000
v 0.500000 -0.812000 0.500000
v -0.500000 -0.359500 0.500000
v -0.500000 -0.512000 0.500000
v 0.500000 -0.512000 0.500000
v -0.500000 -0.359500 0.500000
v 0.500000 -0.512000 0.500000
v 0.500000 -0.359500 0.500000
vt 0.125000 0.500000
vt 0.125000 0.500000
vt 0.125000 0.500000
vt 0.125000 0.500000
vt 0.125000 0.500000
vt 0.125000 0.500000
vt 0.125000 0.500000
vt 0.125000 0.500000
vt 0.125000 0.500000
vt 0.125000 0.500000
vt 0.125000 0.500000
vt 0.125000 0.500000
vt 0.125000 0.500000
vt 0.125000 0.500000
vt 0.125000 0.500000
vt 0.125000 0.500000
vt 0.125000 0.500000
vt 0.125000 0.500000
vt 0.125000 0.500000
vt 0.125000 0.500000
vt 0.125000 0.500000
vt 0.125000 0.500000
vt 0.125000 0.500000
vt 0.125000 0.500000
vt 0.125000 0.500000
vt 0.125000 0.500000
vt 0.125000 0.500000
vt 0.125000 0.500000
vt 0.125000 0.500000
vt 0.125000 0.500000
vt 0.125000 0.500000
vt 0.125000 0.500000
vt 0.125000 0.500000
vt 0.125000 0.500000
vt 0.125000 0.500000
vt 0.125000 0.500000
vt 0.125000 0.500000
vt 0.125000 0.500000
vt 0.125000 0.500000
vt 0.125000 0.500000
vt 0.125000 0.500000
vt 0.125000 0.500000
vt 0.125000 0.500000
vt 0.125000 0.500000
vt 0.125000 0.500000
vt 0.125000 0.500000
vt 0.125000 0.500000
vt 0.125000 0.500000
vt 0.375000 0.500000
vt 0.375000 0.500000
vt 0.375000 0.500000
vt 0.375000 0.500000
vt 0.375000 0.500000
vt 0.375000 0.500000
vt 0.375000 0.500000
vt 0.375000 0.500000
vt 0.375000 0.500000
vt 0.375000 0.500000
vt 0.375000 0.500000
vt 0.375000 0.500000
vt 0.375000 0.500000
vt 0.375000 0.500000
vt 0.375000 0.500000
vt 0.375000 0.500000
vt 0.375000 0.500000
vt 0.375000 0.500000
vt 0.375000 0.500000
vt 0.375000 0.500000
vt 0.375000 0.500000
vt 0.375000 0.500000
vt 0.375000 0.500000
vt 0.375000 0.500000
vt 0.625000 0.500000
vt 0.625000 0.500000
vt 0.625000 0.500000
vt 0.625000 0.500000
vt 0.625000 0.500000
vt 0.625000 0.500000
vt 0.625000 0.500000
vt 0.625000 0.500000
vt 0.625000 0.500000
vt 0.625000 0.500000
vt 0.625000 0.500000
vt 0.625000 0.500000
vt 0.875000 0.500000
vt 0.875000 0.500000
vt 0.875000 0.500000
vt 0.875000 0.500000
vt 0.875000 0.500000
vt 0.875000 0.500000
vt 0.875000 0.500000
vt 0.875000 0.500000
vt 0.875000 0.500000
vt 0.875000 0.500000
vt 0.875000 0.500000
vt 0.875000 0.500000
vn 0.0000 0.4786 0.8780
vn -0.0000 0.2985 0.9544
vn 0.0000 0.4787 0.8780
vn -0.0000 -0.9788 0.2050
vn -0.0000 -0.9984 0.0572
vn 0.0000 -0.9374 0.3482
vn 0.0000 -0.0519 0.9987
vn 0.0000 0.9621 0.2726
vn -0.0000 0.9905 0.1376
vn 0.0000 -0.2094 0.9778
vn 0.0000 1.0000 0.0000
vn 0.0000 -1.0000 -0.0000
vn -0.0000 -0.9808 0.1951
vn 0.0001 -0.9808 0.1951
vn -0.0000 -0.1951 0.9808
vn -0.0000 -0.3826 0.9239
vn -0.0000 -0.3828 0.9238
vn 0.0000 -0.9239 0.3827
vn 0.0000 -0.0000 1.0000
vn -0.0001 -0.1951 0.9808
usemtl mat_1.009
s 1
f 1/1/1 2/2/1 3/3/2
f 4/4/3 5/5/2 6/6/2
f 7/7/4 8/8/4 9/9/5
f 10/10/4 11/11/5 12/12/5
f 13/13/4 14/14/6 15/15/6
f 16/16/4 17/17/6 18/18/4
f 19/19/2 20/20/2 21/21/7
f 22/22/2 23/23/7 24/24/7
f 25/25/8 26/26/9 27/27/9
f 28/28/8 29/29/9 30/30/8
f 31/31/7 32/32/7 33/33/10
f 34/34/7 35/35/10 36/36/10
f 37/37/11 38/38/11 39/39/11
f 40/40/11 41/41/11 42/42/11
f 43/43/9 44/44/9 45/45/11
f 46/46/9 47/47/11 48/48/11
usemtl mat_2.009
f 49/49/12 50/50/13 51/51/13
f 52/52/12 53/53/14 54/54/12
f 55/55/15 56/56/15 57/57/16
f 58/58/15 59/59/17 60/60/17
f 61/61/18 62/62/18 63/63/13
f 64/64/18 65/65/13 66/66/13
f 67/67/19 68/68/19 69/69/19
f 70/70/19 71/71/19 72/72/19
usemtl mat_3.007
f 73/73/19 74/74/19 75/75/19
f 76/76/19 77/77/19 78/78/19
f 79/79/19 80/80/19 81/81/19
f 82/82/19 83/83/19 84/84/19
usemtl mat_4.007
f 85/85/19 86/86/15 87/87/15
f 88/88/19 89/89/20 90/90/19
f 91/91/19 92/92/19 93/93/19
f 94/94/19 95/95/19 96/96/19
