# Blender v3.1.2 OBJ File: ''
# www.blender.org
mtllib arrow_up.mtl
o arrow_up
v -0.044730 1.436680 -0.062930
v 0.044730 1.436680 -0.062930
v 0.059220 1.422120 -0.077490
v -0.044730 1.436680 -0.062930
v 0.059220 1.422120 -0.077490
v -0.059220 1.422120 -0.077490
v 0.044730 1.436680 0.062930
v -0.044730 1.436680 0.062930
v -0.059220 1.422120 0.077490
v 0.044730 1.436680 0.062930
v -0.059220 1.422120 0.077490
v 0.059220 1.422120 0.077490
v -0.059220 0.000000 -0.077490
v -0.059220 1.422120 -0.077490
v 0.059220 1.422120 -0.077490
v -0.059220 0.000000 -0.077490
v 0.059220 1.422120 -0.077490
v 0.059220 0.000000 -0.077490
v 0.059220 -0.000000 0.077490
v 0.059220 1.422120 0.077490
v -0.059220 1.422120 0.077490
v 0.059220 -0.000000 0.077490
v -0.059220 1.422120 0.077490
v -0.059220 -0.000000 0.077490
v 0.077490 0.000000 -0.059220
v 0.077490 1.422120 -0.059220
v 0.077490 1.422120 0.059220
v 0.077490 0.000000 -0.059220
v 0.077490 1.422120 0.059220
v 0.077490 -0.000000 0.059220
v 0.062930 1.436680 -0.044730
v 0.044730 1.436680 -0.062930
v -0.044730 1.436680 -0.062930
v 0.062930 1.436680 -0.044730
v -0.044730 1.436680 -0.062930
v -0.062930 1.436680 -0.044730
v 0.062930 1.436680 -0.044730
v -0.062930 1.436680 -0.044730
v -0.062930 1.436680 0.044730
v 0.062930 1.436680 -0.044730
v -0.062930 1.436680 0.044730
v -0.044730 1.436680 0.062930
v 0.062930 1.436680 -0.044730
v -0.044730 1.436680 0.062930
v 0.044730 1.436680 0.062930
v 0.062930 1.436680 -0.044730
v 0.044730 1.436680 0.062930
v 0.062930 1.436680 0.044730
v 0.062930 1.436680 -0.044730
v 0.062930 1.436680 0.044730
v 0.077490 1.422120 0.059220
v 0.062930 1.436680 -0.044730
v 0.077490 1.422120 0.059220
v 0.077490 1.422120 -0.059220
v -0.062930 1.436680 0.044730
v -0.062930 1.436680 -0.044730
v -0.077490 1.422120 -0.059220
v -0.062930 1.436680 0.044730
v -0.077490 1.422120 -0.059220
v -0.077490 1.422120 0.059220
v -0.077490 -0.000000 0.059220
v -0.077490 1.422120 0.059220
v -0.077490 1.422120 -0.059220
v -0.077490 -0.000000 0.059220
v -0.077490 1.422120 -0.059220
v -0.077490 0.000000 -0.059220
v -0.059220 1.422120 0.077490
v -0.044730 1.436680 0.062930
v -0.062930 1.436680 0.044730
v -0.059220 1.422120 0.077490
v -0.062930 1.436680 0.044730
v -0.077490 1.422120 0.059220
v -0.044730 1.436680 -0.062930
v -0.059220 1.422120 -0.077490
v -0.077490 1.422120 -0.059220
v -0.044730 1.436680 -0.062930
v -0.077490 1.422120 -0.059220
v -0.062930 1.436680 -0.044730
v 0.062930 1.436680 -0.044730
v 0.077490 1.422120 -0.059220
v 0.059220 1.422120 -0.077490
v 0.062930 1.436680 -0.044730
v 0.059220 1.422120 -0.077490
v 0.044730 1.436680 -0.062930
v 0.044730 1.436680 0.062930
v 0.059220 1.422120 0.077490
v 0.077490 1.422120 0.059220
v 0.044730 1.436680 0.062930
v 0.077490 1.422120 0.059220
v 0.062930 1.436680 0.044730
v 0.077490 -0.000000 0.059220
v 0.077490 1.422120 0.059220
v 0.059220 1.422120 0.077490
v 0.077490 -0.000000 0.059220
v 0.059220 1.422120 0.077490
v 0.059220 -0.000000 0.077490
v -0.077490 1.422120 0.059220
v -0.077490 -0.000000 0.059220
v -0.059220 -0.000000 0.077490
v -0.077490 1.422120 0.059220
v -0.059220 -0.000000 0.077490
v -0.059220 1.422120 0.077490
v -0.059220 1.422120 -0.077490
v -0.059220 0.000000 -0.077490
v -0.077490 0.000000 -0.059220
v -0.059220 1.422120 -0.077490
v -0.077490 0.000000 -0.059220
v -0.077490 1.422120 -0.059220
v 0.077490 1.422120 -0.059220
v 0.077490 0.000000 -0.059220
v 0.059220 0.000000 -0.077490
v 0.077490 1.422120 -0.059220
v 0.059220 0.000000 -0.077490
v 0.059220 1.422120 -0.077490
v -0.077490 0.000000 -0.059220
v -0.059220 0.000000 -0.077490
v 0.059220 0.000000 -0.077490
v -0.077490 0.000000 -0.059220
v 0.059220 0.000000 -0.077490
v 0.077490 0.000000 -0.059220
v -0.077490 0.000000 -0.059220
v 0.077490 0.000000 -0.059220
v 0.077490 -0.000000 0.059220
v -0.077490 0.000000 -0.059220
v 0.077490 -0.000000 0.059220
v 0.059220 -0.000000 0.077490
v -0.077490 0.000000 -0.059220
v 0.059220 -0.000000 0.077490
v -0.059220 -0.000000 0.077490
v -0.077490 0.000000 -0.059220
v -0.059220 -0.000000 0.077490
v -0.077490 -0.000000 0.059220
v 0.062090 1.447740 0.073710
v 0.180740 1.445920 0.073710
v 0.168350 0.620900 0.073710
v 0.062090 1.447740 0.073710
v 0.168350 0.620900 0.073710
v 0.117880 0.591850 0.073710
v -0.151620 1.474340 0.176750
v -0.164150 0.639170 0.176750
v -0.135660 0.621600 0.176750
v -0.151620 1.474340 0.176750
v -0.135660 0.621600 0.176750
v -0.056630 1.449490 0.176750
v 0.117880 0.591850 0.073710
v 0.168350 0.620900 0.073710
v 0.168350 0.620900 0.153370
v 0.117880 0.591850 0.073710
v 0.168350 0.620900 0.153370
v 0.117880 0.591850 0.153370
v -0.187740 0.626220 0.073710
v -0.138110 0.595700 0.073710
v -0.138110 0.595700 0.153370
v -0.187740 0.626220 0.073710
v -0.138110 0.595700 0.153370
v -0.187740 0.626220 0.153370
v 0.180740 1.445920 0.073710
v 0.013300 1.890770 0.073710
v 0.358890 1.443260 0.073710
v 0.062090 1.447740 0.176750
v 0.116200 0.617820 0.176750
v 0.145180 0.634550 0.176750
v 0.062090 1.447740 0.176750
v 0.145180 0.634550 0.176750
v 0.157780 1.469650 0.176750
v 0.013300 1.890770 0.073710
v 0.010710 1.890840 0.073710
v 0.010710 1.890840 0.153370
v 0.013300 1.890770 0.073710
v 0.010710 1.890840 0.153370
v 0.013300 1.890770 0.153370
v 0.041370 1.816150 0.176750
v 0.157780 1.469650 0.176750
v 0.310730 1.467340 0.176750
v -0.056630 1.449490 0.073710
v -0.175350 1.451310 0.073710
v 0.005460 1.890910 0.073710
v -0.056630 1.449490 0.073710
v 0.005460 1.890910 0.073710
v 0.008050 1.890840 0.073710
v 0.062090 1.447740 0.176750
v 0.157780 1.469650 0.176750
v 0.041370 1.816150 0.176750
v 0.062090 1.447740 0.176750
v 0.041370 1.816150 0.176750
v 0.019320 1.816500 0.176750
v -0.056630 1.449490 0.176750
v -0.135660 0.621600 0.176750
v 0.116200 0.617820 0.176750
v -0.056630 1.449490 0.176750
v 0.116200 0.617820 0.176750
v 0.062090 1.447740 0.176750
v 0.008050 1.890840 0.073710
v 0.005460 1.890910 0.073710
v 0.005460 1.890910 0.153370
v 0.008050 1.890840 0.073710
v 0.005460 1.890910 0.153370
v 0.008050 1.890840 0.153370
v 0.005460 1.890910 0.073710
v -0.175350 1.451310 0.073710
v -0.353430 1.453970 0.073710
v -0.353430 1.453970 0.073710
v -0.353430 1.453970 0.153370
v 0.005460 1.890910 0.153370
v -0.353430 1.453970 0.073710
v 0.005460 1.890910 0.153370
v 0.005460 1.890910 0.073710
v 0.180740 1.445920 0.153370
v 0.180740 1.445920 0.073710
v 0.358890 1.443260 0.073710
v 0.180740 1.445920 0.153370
v 0.358890 1.443260 0.073710
v 0.358890 1.443260 0.153370
v -0.151620 1.474340 0.176750
v -0.056630 1.449490 0.176750
v -0.002800 1.816850 0.176750
v -0.151620 1.474340 0.176750
v -0.002800 1.816850 0.176750
v -0.024850 1.817130 0.176750
v 0.180740 1.445920 0.073710
v 0.062090 1.447740 0.073710
v 0.010710 1.890840 0.073710
v 0.180740 1.445920 0.073710
v 0.010710 1.890840 0.073710
v 0.013300 1.890770 0.073710
v 0.062090 1.447740 0.073710
v -0.056630 1.449490 0.073710
v 0.008050 1.890840 0.073710
v 0.062090 1.447740 0.073710
v 0.008050 1.890840 0.073710
v 0.010710 1.890840 0.073710
v -0.151620 1.474340 0.176750
v -0.024850 1.817130 0.176750
v -0.304570 1.476650 0.176750
v 0.358890 1.443260 0.153370
v 0.358890 1.443260 0.073710
v 0.013300 1.890770 0.073710
v 0.358890 1.443260 0.153370
v 0.013300 1.890770 0.073710
v 0.013300 1.890770 0.153370
v -0.056630 1.449490 0.176750
v 0.062090 1.447740 0.176750
v 0.019320 1.816500 0.176750
v -0.056630 1.449490 0.176750
v 0.019320 1.816500 0.176750
v -0.002800 1.816850 0.176750
v -0.175350 1.451310 0.073710
v -0.175350 1.451310 0.153370
v -0.353430 1.453970 0.153370
v -0.175350 1.451310 0.073710
v -0.353430 1.453970 0.153370
v -0.353430 1.453970 0.073710
v 0.010710 1.890840 0.073710
v 0.008050 1.890840 0.073710
v 0.008050 1.890840 0.153370
v 0.010710 1.890840 0.073710
v 0.008050 1.890840 0.153370
v 0.010710 1.890840 0.153370
v -0.175350 1.451310 0.073710
v -0.187740 0.626220 0.073710
v -0.187740 0.626220 0.153370
v -0.175350 1.451310 0.073710
v -0.187740 0.626220 0.153370
v -0.175350 1.451310 0.153370
v -0.138110 0.595700 0.073710
v 0.117880 0.591850 0.073710
v 0.117880 0.591850 0.153370
v -0.138110 0.595700 0.073710
v 0.117880 0.591850 0.153370
v -0.138110 0.595700 0.153370
v -0.175350 1.451310 0.073710
v -0.056630 1.449490 0.073710
v -0.138110 0.595700 0.073710
v -0.175350 1.451310 0.073710
v -0.138110 0.595700 0.073710
v -0.187740 0.626220 0.073710
v -0.056630 1.449490 0.073710
v 0.062090 1.447740 0.073710
v 0.117880 0.591850 0.073710
v -0.056630 1.449490 0.073710
v 0.117880 0.591850 0.073710
v -0.138110 0.595700 0.073710
v -0.135660 0.621600 0.176750
v -0.164150 0.639170 0.176750
v -0.187740 0.626220 0.153370
v -0.135660 0.621600 0.176750
v -0.187740 0.626220 0.153370
v -0.138110 0.595700 0.153370
v -0.164150 0.639170 0.176750
v -0.151620 1.474340 0.176750
v -0.175350 1.451310 0.153370
v -0.164150 0.639170 0.176750
v -0.175350 1.451310 0.153370
v -0.187740 0.626220 0.153370
v 0.157780 1.469650 0.176750
v 0.145180 0.634550 0.176750
v 0.168350 0.620900 0.153370
v 0.157780 1.469650 0.176750
v 0.168350 0.620900 0.153370
v 0.180740 1.445920 0.153370
v 0.019320 1.816500 0.176750
v 0.041370 1.816150 0.176750
v 0.013300 1.890770 0.153370
v 0.019320 1.816500 0.176750
v 0.013300 1.890770 0.153370
v 0.010710 1.890840 0.153370
v -0.353430 1.453970 0.153370
v -0.175350 1.451310 0.153370
v -0.151620 1.474340 0.176750
v -0.353430 1.453970 0.153370
v -0.151620 1.474340 0.176750
v -0.304570 1.476650 0.176750
v 0.041370 1.816150 0.176750
v 0.310730 1.467340 0.176750
v 0.358890 1.443260 0.153370
v 0.041370 1.816150 0.176750
v 0.358890 1.443260 0.153370
v 0.013300 1.890770 0.153370
v 0.310730 1.467340 0.176750
v 0.157780 1.469650 0.176750
v 0.180740 1.445920 0.153370
v 0.310730 1.467340 0.176750
v 0.180740 1.445920 0.153370
v 0.358890 1.443260 0.153370
v 0.005460 1.890910 0.153370
v -0.353430 1.453970 0.153370
v -0.304570 1.476650 0.176750
v 0.005460 1.890910 0.153370
v -0.304570 1.476650 0.176750
v -0.024850 1.817130 0.176750
v 0.145180 0.634550 0.176750
v 0.116200 0.617820 0.176750
v 0.117880 0.591850 0.153370
v 0.145180 0.634550 0.176750
v 0.117880 0.591850 0.153370
v 0.168350 0.620900 0.153370
v 0.116200 0.617820 0.176750
v -0.135660 0.621600 0.176750
v -0.138110 0.595700 0.153370
v 0.116200 0.617820 0.176750
v -0.138110 0.595700 0.153370
v 0.117880 0.591850 0.153370
v -0.024850 1.817130 0.176750
v -0.002800 1.816850 0.176750
v 0.008050 1.890840 0.153370
v -0.024850 1.817130 0.176750
v 0.008050 1.890840 0.153370
v 0.005460 1.890910 0.153370
v -0.002800 1.816850 0.176750
v 0.019320 1.816500 0.176750
v 0.010710 1.890840 0.153370
v -0.002800 1.816850 0.176750
v 0.010710 1.890840 0.153370
v 0.008050 1.890840 0.153370
v 0.168350 0.620900 0.073710
v 0.180740 1.445920 0.073710
v 0.180740 1.445920 0.153370
v 0.168350 0.620900 0.073710
v 0.180740 1.445920 0.153370
v 0.168350 0.620900 0.153370
vt 0.250000 0.500000
vt 0.250000 0.500000
vt 0.250000 0.500000
vt 0.250000 0.500000
vt 0.250000 0.500000
vt 0.250000 0.500000
vt 0.250000 0.500000
vt 0.250000 0.500000
vt 0.250000 0.500000
vt 0.250000 0.500000
vt 0.250000 0.500000
vt 0.250000 0.500000
vt 0.250000 0.500000
vt 0.250000 0.500000
vt 0.250000 0.500000
vt 0.250000 0.500000
vt 0.250000 0.500000
vt 0.250000 0.500000
vt 0.250000 0.500000
vt 0.250000 0.500000
vt 0.250000 0.500000
vt 0.250000 0.500000
vt 0.250000 0.500000
vt 0.250000 0.500000
vt 0.250000 0.500000
vt 0.250000 0.500000
vt 0.250000 0.500000
vt 0.250000 0.500000
vt 0.250000 0.500000
vt 0.250000 0.500000
vt 0.250000 0.500000
vt 0.250000 0.500000
vt 0.250000 0.500000
vt 0.250000 0.500000
vt 0.250000 0.500000
vt 0.250000 0.500000
vt 0.250000 0.500000
vt 0.250000 0.500000
vt 0.250000 0.500000
vt 0.250000 0.500000
vt 0.250000 0.500000
vt 0.250000 0.500000
vt 0.250000 0.500000
vt 0.250000 0.500000
vt 0.250000 0.500000
vt 0.250000 0.500000
vt 0.250000 0.500000
vt 0.250000 0.500000
vt 0.250000 0.500000
vt 0.250000 0.500000
vt 0.250000 0.500000
vt 0.250000 0.500000
vt 0.250000 0.500000
vt 0.250000 0.500000
vt 0.250000 0.500000
vt 0.250000 0.500000
vt 0.250000 0.500000
vt 0.250000 0.500000
vt 0.250000 0.500000
vt 0.250000 0.500000
vt 0.250000 0.500000
vt 0.250000 0.500000
vt 0.250000 0.500000
vt 0.250000 0.500000
vt 0.250000 0.500000
vt 0.250000 0.500000
vt 0.250000 0.500000
vt 0.250000 0.500000
vt 0.250000 0.500000
vt 0.250000 0.500000
vt 0.250000 0.500000
vt 0.250000 0.500000
vt 0.250000 0.500000
vt 0.250000 0.500000
vt 0.250000 0.500000
vt 0.250000 0.500000
vt 0.250000 0.500000
vt 0.250000 0.500000
vt 0.250000 0.500000
vt 0.250000 0.500000
vt 0.250000 0.500000
vt 0.250000 0.500000
vt 0.250000 0.500000
vt 0.250000 0.500000
vt 0.250000 0.500000
vt 0.250000 0.500000
vt 0.250000 0.500000
vt 0.250000 0.500000
vt 0.250000 0.500000
vt 0.250000 0.500000
vt 0.250000 0.500000
vt 0.250000 0.500000
vt 0.250000 0.500000
vt 0.250000 0.500000
vt 0.250000 0.500000
vt 0.250000 0.500000
vt 0.250000 0.500000
vt 0.250000 0.500000
vt 0.250000 0.500000
vt 0.250000 0.500000
vt 0.250000 0.500000
vt 0.250000 0.500000
vt 0.250000 0.500000
vt 0.250000 0.500000
vt 0.250000 0.500000
vt 0.250000 0.500000
vt 0.250000 0.500000
vt 0.250000 0.500000
vt 0.250000 0.500000
vt 0.250000 0.500000
vt 0.250000 0.500000
vt 0.250000 0.500000
vt 0.250000 0.500000
vt 0.250000 0.500000
vt 0.250000 0.500000
vt 0.250000 0.500000
vt 0.250000 0.500000
vt 0.250000 0.500000
vt 0.250000 0.500000
vt 0.250000 0.500000
vt 0.250000 0.500000
vt 0.250000 0.500000
vt 0.250000 0.500000
vt 0.250000 0.500000
vt 0.250000 0.500000
vt 0.250000 0.500000
vt 0.250000 0.500000
vt 0.250000 0.500000
vt 0.250000 0.500000
vt 0.250000 0.500000
vt 0.250000 0.500000
vt 0.250000 0.500000
vt 0.750000 0.500000
vt 0.750000 0.500000
vt 0.750000 0.500000
vt 0.750000 0.500000
vt 0.750000 0.500000
vt 0.750000 0.500000
vt 0.750000 0.500000
vt 0.750000 0.500000
vt 0.750000 0.500000
vt 0.750000 0.500000
vt 0.750000 0.500000
vt 0.750000 0.500000
vt 0.750000 0.500000
vt 0.750000 0.500000
vt 0.750000 0.500000
vt 0.750000 0.500000
vt 0.750000 0.500000
vt 0.750000 0.500000
vt 0.750000 0.500000
vt 0.750000 0.500000
vt 0.750000 0.500000
vt 0.750000 0.500000
vt 0.750000 0.500000
vt 0.750000 0.500000
vt 0.750000 0.500000
vt 0.750000 0.500000
vt 0.750000 0.500000
vt 0.750000 0.500000
vt 0.750000 0.500000
vt 0.750000 0.500000
vt 0.750000 0.500000
vt 0.750000 0.500000
vt 0.750000 0.500000
vt 0.750000 0.500000
vt 0.750000 0.500000
vt 0.750000 0.500000
vt 0.750000 0.500000
vt 0.750000 0.500000
vt 0.750000 0.500000
vt 0.750000 0.500000
vt 0.750000 0.500000
vt 0.750000 0.500000
vt 0.750000 0.500000
vt 0.750000 0.500000
vt 0.750000 0.500000
vt 0.750000 0.500000
vt 0.750000 0.500000
vt 0.750000 0.500000
vt 0.750000 0.500000
vt 0.750000 0.500000
vt 0.750000 0.500000
vt 0.750000 0.500000
vt 0.750000 0.500000
vt 0.750000 0.500000
vt 0.750000 0.500000
vt 0.750000 0.500000
vt 0.750000 0.500000
vt 0.750000 0.500000
vt 0.750000 0.500000
vt 0.750000 0.500000
vt 0.750000 0.500000
vt 0.750000 0.500000
vt 0.750000 0.500000
vt 0.750000 0.500000
vt 0.750000 0.500000
vt 0.750000 0.500000
vt 0.750000 0.500000
vt 0.750000 0.500000
vt 0.750000 0.500000
vt 0.750000 0.500000
vt 0.750000 0.500000
vt 0.750000 0.500000
vt 0.750000 0.500000
vt 0.750000 0.500000
vt 0.750000 0.500000
vt 0.750000 0.500000
vt 0.750000 0.500000
vt 0.750000 0.500000
vt 0.750000 0.500000
vt 0.750000 0.500000
vt 0.750000 0.500000
vt 0.750000 0.500000
vt 0.750000 0.500000
vt 0.750000 0.500000
vt 0.750000 0.500000
vt 0.750000 0.500000
vt 0.750000 0.500000
vt 0.750000 0.500000
vt 0.750000 0.500000
vt 0.750000 0.500000
vt 0.750000 0.500000
vt 0.750000 0.500000
vt 0.750000 0.500000
vt 0.750000 0.500000
vt 0.750000 0.500000
vt 0.750000 0.500000
vt 0.750000 0.500000
vt 0.750000 0.500000
vt 0.750000 0.500000
vt 0.750000 0.500000
vt 0.750000 0.500000
vt 0.750000 0.500000
vt 0.750000 0.500000
vt 0.750000 0.500000
vt 0.750000 0.500000
vt 0.750000 0.500000
vt 0.750000 0.500000
vt 0.750000 0.500000
vt 0.750000 0.500000
vt 0.750000 0.500000
vt 0.750000 0.500000
vt 0.750000 0.500000
vt 0.750000 0.500000
vt 0.750000 0.500000
vt 0.750000 0.500000
vt 0.750000 0.500000
vt 0.750000 0.500000
vt 0.750000 0.500000
vt 0.750000 0.500000
vt 0.750000 0.500000
vt 0.750000 0.500000
vt 0.750000 0.500000
vt 0.750000 0.500000
vt 0.750000 0.500000
vt 0.750000 0.500000
vt 0.750000 0.500000
vt 0.750000 0.500000
vt 0.750000 0.500000
vt 0.750000 0.500000
vt 0.750000 0.500000
vt 0.750000 0.500000
vt 0.750000 0.500000
vt 0.750000 0.500000
vt 0.750000 0.500000
vt 0.750000 0.500000
vt 0.750000 0.500000
vt 0.750000 0.500000
vt 0.750000 0.500000
vt 0.750000 0.500000
vt 0.750000 0.500000
vt 0.750000 0.500000
vt 0.750000 0.500000
vt 0.750000 0.500000
vt 0.750000 0.500000
vt 0.750000 0.500000
vt 0.750000 0.500000
vt 0.750000 0.500000
vt 0.750000 0.500000
vt 0.750000 0.500000
vt 0.750000 0.500000
vt 0.750000 0.500000
vt 0.750000 0.500000
vt 0.750000 0.500000
vt 0.750000 0.500000
vt 0.750000 0.500000
vt 0.750000 0.500000
vt 0.750000 0.500000
vt 0.750000 0.500000
vt 0.750000 0.500000
vt 0.750000 0.500000
vt 0.750000 0.500000
vt 0.750000 0.500000
vt 0.750000 0.500000
vt 0.750000 0.500000
vt 0.750000 0.500000
vt 0.750000 0.500000
vt 0.750000 0.500000
vt 0.750000 0.500000
vt 0.750000 0.500000
vt 0.750000 0.500000
vt 0.750000 0.500000
vt 0.750000 0.500000
vt 0.750000 0.500000
vt 0.750000 0.500000
vt 0.750000 0.500000
vt 0.750000 0.500000
vt 0.750000 0.500000
vt 0.750000 0.500000
vt 0.750000 0.500000
vt 0.750000 0.500000
vt 0.750000 0.500000
vt 0.750000 0.500000
vt 0.750000 0.500000
vt 0.750000 0.500000
vt 0.750000 0.500000
vt 0.750000 0.500000
vt 0.750000 0.500000
vt 0.750000 0.500000
vt 0.750000 0.500000
vt 0.750000 0.500000
vt 0.750000 0.500000
vt 0.750000 0.500000
vt 0.750000 0.500000
vt 0.750000 0.500000
vt 0.750000 0.500000
vt 0.750000 0.500000
vt 0.750000 0.500000
vt 0.750000 0.500000
vt 0.750000 0.500000
vt 0.750000 0.500000
vt 0.750000 0.500000
vt 0.750000 0.500000
vt 0.750000 0.500000
vt 0.750000 0.500000
vt 0.750000 0.500000
vt 0.750000 0.500000
vt 0.750000 0.500000
vt 0.750000 0.500000
vt 0.750000 0.500000
vt 0.750000 0.500000
vt 0.750000 0.500000
vt 0.750000 0.500000
vt 0.750000 0.500000
vt 0.750000 0.500000
vt 0.750000 0.500000
vt 0.750000 0.500000
vt 0.750000 0.500000
vt 0.750000 0.500000
vt 0.750000 0.500000
vt 0.750000 0.500000
vt 0.750000 0.500000
vt 0.750000 0.500000
vt 0.750000 0.500000
vt 0.750000 0.500000
vt 0.750000 0.500000
vt 0.750000 0.500000
vt 0.750000 0.500000
vt 0.750000 0.500000
vn -0.1765 0.7786 -0.6021
vn 0.1765 0.7787 -0.6021
vn 0.2623 0.8008 -0.5385
vn -0.2623 0.8008 -0.5385
vn 0.1765 0.7786 0.6021
vn -0.1765 0.7786 0.6021
vn -0.2623 0.8008 0.5385
vn 0.2623 0.8008 0.5385
vn 0.0000 0.0000 -1.0000
vn 0.0000 -0.0000 1.0000
vn 1.0000 0.0000 0.0000
vn 0.0000 1.0000 0.0000
vn 0.6021 0.7786 -0.1765
vn 0.6022 0.7786 0.1765
vn 0.5385 0.8008 0.2623
vn 0.5385 0.8008 -0.2623
vn -0.6021 0.7786 0.1765
vn -0.6022 0.7786 -0.1765
vn -0.5385 0.8008 -0.2623
vn -0.5385 0.8008 0.2623
vn -1.0000 0.0000 0.0000
vn -0.6021 0.7787 0.1765
vn -0.1765 0.7787 -0.6021
vn -0.6021 0.7786 -0.1765
vn 0.6021 0.7787 -0.1765
vn 0.1765 0.7787 0.6021
vn 0.6021 0.7786 0.1765
vn 0.7071 -0.0000 0.7071
vn -0.7071 -0.0000 0.7071
vn -0.7071 0.0000 -0.7071
vn 0.7071 0.0000 -0.7071
vn 0.0000 -1.0000 -0.0000
vn 0.2508 -0.9680 -0.0000
vn 0.4986 -0.8669 -0.0000
vn 0.4989 -0.8667 0.0000
vn -0.5246 -0.8514 -0.0000
vn -0.2798 -0.9601 0.0000
vn -0.5246 -0.8513 0.0000
vn 0.0150 0.9999 0.0000
vn 0.0151 0.9999 0.0000
vn 0.0016 0.1065 0.9943
vn 0.0023 0.1520 0.9884
vn -0.7727 0.6347 0.0000
vn -0.0149 -0.9999 0.0000
vn 0.7915 0.6112 0.0000
vn -0.9999 0.0150 0.0000
vn -0.2081 -0.6439 0.7363
vn -0.3709 -0.6019 0.7072
vn -0.1754 -0.6499 0.7395
vn -0.7070 0.0106 0.7071
vn -0.7068 0.0106 0.7073
vn 0.7071 -0.0107 0.7070
vn 0.7071 -0.0106 0.7071
vn 0.0048 0.3006 0.9537
vn 0.0045 0.3004 0.9538
vn -0.0106 -0.7070 0.7071
vn 0.5597 0.4322 0.7071
vn 0.5595 0.4321 0.7073
vn -0.0107 -0.7070 0.7071
vn -0.0106 -0.7074 0.7068
vn -0.5466 0.4490 0.7068
vn -0.5464 0.4488 0.7072
vn 0.3527 -0.6129 0.7071
vn 0.1886 -0.6498 0.7363
vn 0.1558 -0.6549 0.7395
vn 0.3527 -0.6127 0.7072
vn 0.0044 0.3005 0.9538
vn 0.0048 0.3005 0.9538
vn 0.9999 -0.0150 0.0000
usemtl mat_1.003
s 1
f 1/1/1 2/2/2 3/3/3
f 4/4/1 5/5/3 6/6/4
f 7/7/5 8/8/6 9/9/7
f 10/10/5 11/11/7 12/12/8
f 13/13/9 14/14/9 15/15/9
f 16/16/9 17/17/9 18/18/9
f 19/19/10 20/20/10 21/21/10
f 22/22/10 23/23/10 24/24/10
f 25/25/11 26/26/11 27/27/11
f 28/28/11 29/29/11 30/30/11
f 31/31/12 32/32/12 33/33/12
f 34/34/12 35/35/12 36/36/12
f 37/37/12 38/38/12 39/39/12
f 40/40/12 41/41/12 42/42/12
f 43/43/12 44/44/12 45/45/12
f 46/46/12 47/47/12 48/48/12
f 49/49/13 50/50/14 51/51/15
f 52/52/13 53/53/15 54/54/16
f 55/55/17 56/56/18 57/57/19
f 58/58/17 59/59/19 60/60/20
f 61/61/21 62/62/21 63/63/21
f 64/64/21 65/65/21 66/66/21
f 67/67/7 68/68/6 69/69/17
f 70/70/7 71/71/22 72/72/20
f 73/73/23 74/74/4 75/75/19
f 76/76/1 77/77/19 78/78/24
f 79/79/25 80/80/16 81/81/3
f 82/82/13 83/83/3 84/84/2
f 85/85/26 86/86/8 87/87/15
f 88/88/5 89/89/15 90/90/27
f 91/91/28 92/92/28 93/93/28
f 94/94/28 95/95/28 96/96/28
f 97/97/29 98/98/29 99/99/29
f 100/100/29 101/101/29 102/102/29
f 103/103/30 104/104/30 105/105/30
f 106/106/30 107/107/30 108/108/30
f 109/109/31 110/110/31 111/111/31
f 112/112/31 113/113/31 114/114/31
f 115/115/32 116/116/32 117/117/32
f 118/118/32 119/119/32 120/120/32
f 121/121/32 122/122/32 123/123/32
f 124/124/32 125/125/32 126/126/32
f 127/127/32 128/128/32 129/129/32
f 130/130/32 131/131/32 132/132/32
usemtl mat_2.003
f 133/133/9 134/134/9 135/135/9
f 136/136/9 137/137/9 138/138/9
f 139/139/10 140/140/10 141/141/10
f 142/142/10 143/143/10 144/144/10
f 145/145/33 146/146/34 147/147/34
f 148/148/33 149/149/35 150/150/33
f 151/151/36 152/152/37 153/153/37
f 154/154/38 155/155/37 156/156/38
f 157/157/9 158/158/9 159/159/9
f 160/160/10 161/161/10 162/162/10
f 163/163/10 164/164/10 165/165/10
f 166/166/39 167/167/40 168/168/40
f 169/169/39 170/170/40 171/171/39
f 172/172/41 173/173/10 174/174/10
f 175/175/9 176/176/9 177/177/9
f 178/178/9 179/179/9 180/180/9
f 181/181/10 182/182/10 183/183/41
f 184/184/10 185/185/41 186/186/42
f 187/187/10 188/188/10 189/189/10
f 190/190/10 191/191/10 192/192/10
f 193/193/40 194/194/40 195/195/40
f 196/196/40 197/197/40 198/198/40
f 199/199/9 200/200/9 201/201/9
f 202/202/43 203/203/43 204/204/43
f 205/205/43 206/206/43 207/207/43
f 208/208/44 209/209/44 210/210/44
f 211/211/44 212/212/44 213/213/44
f 214/214/10 215/215/10 216/216/42
f 217/217/10 218/218/42 219/219/41
f 220/220/9 221/221/9 222/222/9
f 223/223/9 224/224/9 225/225/9
f 226/226/9 227/227/9 228/228/9
f 229/229/9 230/230/9 231/231/9
f 232/232/10 233/233/41 234/234/10
f 235/235/45 236/236/45 237/237/45
f 238/238/45 239/239/45 240/240/45
f 241/241/10 242/242/10 243/243/42
f 244/244/10 245/245/42 246/246/42
f 247/247/44 248/248/44 249/249/44
f 250/250/44 251/251/44 252/252/44
f 253/253/40 254/254/40 255/255/40
f 256/256/40 257/257/40 258/258/40
f 259/259/46 260/260/46 261/261/46
f 262/262/46 263/263/46 264/264/46
f 265/265/37 266/266/33 267/267/33
f 268/268/37 269/269/33 270/270/37
f 271/271/9 272/272/9 273/273/9
f 274/274/9 275/275/9 276/276/9
f 277/277/9 278/278/9 279/279/9
f 280/280/9 281/281/9 282/282/9
f 283/283/47 284/284/48 285/285/48
f 286/286/47 287/287/48 288/288/49
f 289/289/50 290/290/50 291/291/50
f 292/292/51 293/293/51 294/294/51
f 295/295/52 296/296/52 297/297/52
f 298/298/53 299/299/53 300/300/53
f 301/301/42 302/302/41 303/303/54
f 304/304/42 305/305/55 306/306/55
f 307/307/56 308/308/56 309/309/56
f 310/310/56 311/311/56 312/312/56
f 313/313/57 314/314/57 315/315/57
f 316/316/58 317/317/58 318/318/58
f 319/319/59 320/320/59 321/321/59
f 322/322/60 323/323/60 324/324/60
f 325/325/61 326/326/61 327/327/61
f 328/328/62 329/329/62 330/330/62
f 331/331/63 332/332/64 333/333/65
f 334/334/66 335/335/65 336/336/66
f 337/337/64 338/338/47 339/339/49
f 340/340/64 341/341/49 342/342/65
f 343/343/41 344/344/42 345/345/67
f 346/346/41 347/347/55 348/348/55
f 349/349/42 350/350/42 351/351/68
f 352/352/42 353/353/55 354/354/55
f 355/355/69 356/356/69 357/357/69
f 358/358/69 359/359/69 360/360/69
